PathFileType	4	(X/Y/Z)	22_2_33_p1_0-155.trc
DataRate	CameraRate	NumFrames	NumMarkers	Units	OrigDataRate	OrigDataStartFrame	OrigNumFrames
59.0	59.0	7	27	m	59.0	117	156
Frame#	Time	RHip			RKnee			RAnkle			RBigToe			RSmallToe			RHeel			LHip			LKnee			LAnkle			LBigToe			LSmallToe			LHeel			Neck			Head			Nose			RShoulder			RElbow			RWrist			RThumb			RIndex			RPinky			LShoulder			LElbow			LWrist			LThumb			LIndex			LPinky			
		X1	Y1	Z1	X2	Y2	Z2	X3	Y3	Z3	X4	Y4	Z4	X5	Y5	Z5	X6	Y6	Z6	X7	Y7	Z7	X8	Y8	Z8	X9	Y9	Z9	X10	Y10	Z10	X11	Y11	Z11	X12	Y12	Z12	X13	Y13	Z13	X14	Y14	Z14	X15	Y15	Z15	X16	Y16	Z16	X17	Y17	Z17	X18	Y18	Z18	X19	Y19	Z19	X20	Y20	Z20	X21	Y21	Z21	X22	Y22	Z22	X23	Y23	Z23	X24	Y24	Z24	X25	Y25	Z25	X26	Y26	Z26	X27	Y27	Z27	
117	1.9830508474576272	0.2571966506753631	0.5884280857330246	1.05859009215671	0.25253895033129053	0.7120517241678418	1.4424812343299098	0.2958045623687238	0.9657190714809776	1.850623679346077	0.2507075080722436	0.7132421415253127	1.8836705879895679	0.29907369959441865	0.7538534911824497	1.8844983486874727	0.29608745157753397	1.0284847115146958	1.8949333606447352	0.042818258218263794	0.6305631888252732	1.0566873831689712	0.07716359800476721	0.7667369156234778	1.438613473917854	0.09544806122742508	0.9054481130394587	1.829679983531905	0.10112556470950125	0.7299662281057165	1.885737563758493	0.0499741031128334	0.7876158150277639	1.8851506253282844	0.12886833052714425	0.976808571792629	1.8807012361587954	0.14037881731017587	0.4590760419936637	0.4947672258984284	0.1283507857062125	0.34041215355250337	0.2527819189709107	0.10522989025582634	0.29093413633744675	0.41415323001794385	0.29627112529218264	0.462895367468825	0.578694595976308	0.3713316334975057	0.5158885471250289	0.8263026869857123	0.3582841439252817	0.4993933841937766	1.080894798249929	0.3678091290789613	0.5067364213279126	1.2136494095887145	0.3924242380368299	0.5325951887195044	1.2294091041290394	0.4076419153214962	0.5686510605936655	1.2210242502902477	-0.018745228528316376	0.5169581698729494	0.5636921246168296	-0.07784156270410521	0.6248121090088636	0.8132989706675597	-0.05571405052276088	0.6148645108914246	1.0667082989658916	-0.009685653746509119	0.6079678777088846	1.168915319837439	-0.033553940007252474	0.6122961268156859	1.1903253756192949	-0.07053531037608647	0.6218625697265718	1.1795704426673634
118	2.0	0.2521977881444993	0.5891719044358993	1.0548785970997603	0.2522341239584102	0.7128228556122637	1.438361204884052	0.29557597573806305	0.966784796556847	1.846121527073296	0.25099211332020543	0.7139757311733688	1.8837544029384914	0.3044600909383448	0.7558533344178093	1.8851021691223249	0.296381610030779	1.0291691720394682	1.8950490071015729	0.042745423043811306	0.6310983069555934	1.0567208861384554	0.07737189073466891	0.766269865431188	1.4424182584044136	0.09545234655775403	0.9055890341240757	1.8296501299040484	0.10121693371283402	0.7301759197617248	1.8858762604012853	0.05000329443443234	0.7879679185341916	1.8853243004607652	0.1345265344813885	0.9926741112123838	1.8858839229486815	0.1403523201623844	0.4591773201114925	0.4947781974857115	0.12608832933085315	0.3514296077847446	0.25057032874158897	0.10107852611324701	0.29095998215412433	0.41439918506117857	0.3014541333989738	0.4743523208440791	0.5742636350005762	0.37237543789046784	0.5177085118627972	0.8300923278485346	0.35830257346861083	0.4991235793105076	1.0809361777223367	0.3684446538398042	0.5183274349460592	1.2150260241912016	0.3916242750495404	0.5474167131869642	1.2317920825451312	0.40777884166889006	0.5689248525206353	1.2217175163166185	-0.0186550880075472	0.5163928633526766	0.5605213581276435	-0.07802144479183436	0.6250874181803734	0.8130331086699403	-0.05562528038343133	0.6145779215243256	1.066620700194672	-0.0060396958984929175	0.6085159677314473	1.1687815024422457	-0.033095223245225014	0.6114976880832431	1.1869941042176209	-0.07021014086934661	0.6218158527977515	1.1795700909501041
119	2.016949152542373	0.2508361798006134	0.5871752960269796	1.0510534605729664	0.2523404956970458	0.7130263423265712	1.4384397722490068	0.29559386112690966	0.9667025160719831	1.8461484462506794	0.25096663315876955	0.7135526805383849	1.883715209872032	0.304679167450934	0.7563954697208731	1.885244400929512	0.2900737578855988	1.012964217098428	1.8899182606771043	0.043035530910844826	0.6307027522421388	1.0604594599552448	0.07300967471855731	0.7798789204533219	1.4368619415823365	0.09538546900425972	0.9056370037712581	1.8297961149138586	0.10118151805455167	0.7301310798889749	1.8858494999816413	0.04992653918170235	0.7879490081474749	1.8853860005853116	0.12880183908189033	0.9769288201873569	1.8807201554366892	0.14003538839808816	0.45881621181038545	0.49119741636860004	0.12605486180404454	0.3509802659831954	0.2504096484976703	0.10088736558784518	0.2907828741268975	0.41426194177704173	0.294085508467606	0.4769191749601518	0.5745815198982934	0.37121381180579777	0.5157607138579138	0.8262303670103172	0.3527276810390477	0.4874418161343371	1.079856332412636	0.3627589903020744	0.5334914049248893	1.2173149521583306	0.3966909011999014	0.5612496468645131	1.2375918969187358	0.4077613110650937	0.5688117406851876	1.22174160558782	-0.018727598627533492	0.5160494021577052	0.5604373366477531	-0.07874281032318416	0.6227227125389657	0.8089631398541501	-0.05226721451385414	0.6006234952212498	1.0649309185674143	-0.006152001987370463	0.6082857318289414	1.168673421910541	-0.03320443114057397	0.6113102599058555	1.1869363041458314	-0.06587875442858014	0.6363357641681829	1.1856202016376498
120	2.0338983050847457	0.25244909026193046	0.5883769783686528	1.0588881333735525	0.25870472864580557	0.7258741257633481	1.436822406983938	0.2895310310979635	0.9507628197162851	1.8411432729646795	0.24558455768351142	0.6993079487306313	1.878538919039278	0.3043958028919553	0.7548171143877483	1.8848323897518984	0.289863216621398	1.0136513569017689	1.8858004827638775	0.04593065677428456	0.6159735005087668	1.0589895982110054	0.08233191355840273	0.781290368087172	1.441390497244831	0.09548036362680608	0.9061518525695033	1.83011496791754	0.10110068183932674	0.7296596301988509	1.885685810850702	0.052749210819861614	0.77271442963569	1.8800245247523326	0.1289549297842273	0.97723939405359	1.8807679300342663	0.14019657458909604	0.45890632902731104	0.494674312664717	0.12159194188423068	0.34058683425340985	0.2527579308372457	0.10091108652020629	0.29071847859154737	0.41426441857948537	0.2941613394797677	0.4761885434245075	0.5779985870287122	0.3704820419625391	0.5137156750217255	0.8262983674220934	0.3578486955299994	0.5000350227140181	1.0848180482724854	0.36462490051425955	0.563898124679653	1.2265937180395903	0.3912481698293799	0.5516648888433314	1.240285549531622	0.4133134878870858	0.5811080989077836	1.2234328237571708	-0.023043155343933096	0.5028563630781641	0.5616488933245518	-0.07494036301948906	0.6115879791020803	0.8126749274705368	-0.05191991608342055	0.600235850787953	1.068573894473375	-0.014318397857091282	0.5952056324110765	1.167487296266392	-0.0337105681762164	0.6120352472120777	1.1904494291666174	-0.06007992799821554	0.608920657522162	1.1845066190160853
121	2.0508474576271185	0.25249878429949185	0.5874807397590377	1.055013553864602	0.25865859755195597	0.7260073459236372	1.43689386656637	0.2971875105309082	0.9476295302238756	1.839846305342991	0.25079925606632464	0.7134960184922715	1.8837764527516878	0.3043514435633534	0.7555117403214046	1.885076734334	0.290003872463863	1.0127393334209736	1.8897275698043108	0.04304394411188638	0.6303368502119925	1.0605181271854796	0.08239167771332487	0.7813381193233375	1.4413785956911382	0.09573791525120176	0.9060041271085782	1.8299818284143063	0.10084195808264798	0.7310540286474284	1.8811582215571019	0.05008818816278496	0.7882777296259452	1.8854695185874257	0.1290967403793325	0.9769569089596729	1.8805633891881046	0.13932883465375268	0.4572362025972617	0.48779025812707055	0.12220821235645392	0.3422628296942766	0.2555810287756075	0.0986337888957586	0.3021437076548623	0.41294865575885775	0.28326931979001235	0.46269743300788413	0.5723157856218162	0.370409358801905	0.5135811954303201	0.8262459243649417	0.35777063163157874	0.500239925200379	1.08488742904286	0.35492294552102416	0.536100639523591	1.2219998584582776	0.38039625909234054	0.5369128151910761	1.2340693224402415	0.4074547940925156	0.5687732446651392	1.221810053376914	-0.02317933659394126	0.5026778599980207	0.5616345049116949	-0.0746611892566939	0.6110302133303971	0.8093658593198624	-0.051984028649724914	0.600246295016606	1.0685840369401276	-0.014465694723249338	0.5951835201600217	1.1674767340439194	-0.03377953907373212	0.6119307641979889	1.1904937789704417	-0.06689048962584883	0.6077277405259166	1.1847425977847965
122	2.0677966101694913	0.2522164539695	0.5883920686310664	1.0589278297030311	0.2587343923251781	0.7263549718328189	1.4369426109524943	0.2971553952049798	0.9472891170759744	1.8398440319607943	0.250497114300467	0.7131899585140183	1.8838809117490447	0.30399914679162215	0.7553371166347665	1.88508215960686	0.2896884749704483	1.0127318795052134	1.8898318822375975	0.04300417966196367	0.6305086578198722	1.060576300553764	0.08297822124162907	0.7801577312334748	1.4371955787195048	0.0956522583265571	0.906342430276374	1.8301947441188802	0.10119868306411878	0.7302236469512394	1.8858874321954102	0.05007185093345402	0.7890709156621967	1.8859052338252094	0.12899958867090525	0.9774471453236636	1.8808046334763517	0.1392601571817418	0.4572325895973923	0.48780000153121617	0.12222323835165418	0.342523479081798	0.25564606860194183	0.09828296926520629	0.30216950621400585	0.40978123601596234	0.2854935393708538	0.45037095065180827	0.5763237017999454	0.3703314688907406	0.5132876461082394	0.8262010869116482	0.357726101734195	0.5005401704905187	1.0849281269372755	0.3413330993491426	0.5530280515772985	1.2175220416691628	0.3732997948986589	0.5384129463196619	1.2335675329179425	0.40283402685431585	0.5693592434532413	1.221633340816137	-0.023010713066210692	0.5022429683455861	0.5583797987110676	-0.07787611424522063	0.6247283857603041	0.8094472894605976	-0.052010110819445045	0.6002443953306416	1.0686436164547495	-0.018037184058498582	0.5950989258619562	1.1675925135275669	-0.03385296836427383	0.6119443571987746	1.1904686779438174	-0.06030731139917717	0.6084426234219437	1.1845301464598998
123	2.0847457627118646	0.25110167419411084	0.5866170041532682	1.0550900319662226	0.2633638361077016	0.738184150825595	1.4351538889317457	0.29712320987895974	0.9473309190066169	1.8398089420743968	0.25062182914034464	0.7138112278981257	1.8841145515356847	0.304361495711319	0.7562255087268676	1.885241592597424	0.28774236696012173	1.0098407496222417	1.8840076610661003	0.042758003326962224	0.6308857248101247	1.05668552577755	0.08114391784994482	0.7790303440402596	1.4361617423784272	0.09558077249164482	0.9061801111875265	1.8301426379339163	0.09913251612141386	0.7460433572932986	1.8916276044912197	0.04547408620788579	0.7889896569938185	1.8858766419459774	0.12895840605628558	0.977201557129911	1.8807063729616518	0.1371079614686411	0.46996223446357355	0.4868206779579305	0.12016979548666505	0.3545129653298445	0.2509879702272613	0.0981252889410516	0.30212714754642844	0.4097082568754458	0.28267471524373466	0.46157387698519947	0.5721476758091926	0.37123190828419217	0.4998107621552669	0.8219126371038191	0.3532540073366804	0.4996079194361043	1.0849070586942673	0.3354029765411816	0.5688101896575272	1.2203677628429084	0.36620661021714956	0.5399804777921936	1.2338108959945997	0.40148831234058074	0.5835376527916329	1.2237438714647104	-0.027879407155648017	0.4886645781171002	0.559235249248689	-0.07790940517416363	0.6245919814775657	0.809425642624673	-0.05200941503074235	0.6000913307107753	1.0686029206529413	-0.018081613385063287	0.5949301470534449	1.1675992004074434	-0.03510289134951046	0.5863959998042165	1.1868086641186915	-0.06422131487665532	0.5938294485588743	1.1825566696199519
